<svg width="318" height="50" viewBox="0 0 318 50" fill="none" xmlns="http://www.w3.org/2000/svg">
<rect width="86" height="50" fill="#EDD9C4"/>
<path d="M24.6172 22.7852C24.6172 22.6862 24.6732 22.6276 24.7852 22.6094C24.8971 22.5885 25.2018 22.5781 25.6992 22.5781C26.1966 22.5781 26.4453 22.6354 26.4453 22.75C26.4453 22.7917 26.4193 22.8555 26.3672 22.9414C26.3151 23.0247 26.2891 23.1224 26.2891 23.2344C26.2891 23.3438 26.3359 23.5443 26.4297 23.8359C26.8177 25.0417 27.0898 25.8398 27.2461 26.2305C27.4049 26.6211 27.4961 26.8164 27.5195 26.8164C27.569 26.8164 27.6523 26.6771 27.7695 26.3984C28.1315 25.5365 28.418 24.724 28.6289 23.9609C28.7148 23.651 28.7578 23.444 28.7578 23.3398C28.7578 23.2331 28.7409 23.1471 28.707 23.082C28.6732 23.0143 28.6341 22.9466 28.5898 22.8789C28.5456 22.8112 28.5234 22.763 28.5234 22.7344C28.5234 22.6224 28.737 22.5664 29.1641 22.5664H29.4336C29.8372 22.5664 30.0391 22.6198 30.0391 22.7266C30.0391 22.8177 29.9557 22.9167 29.7891 23.0234C29.6224 23.1302 29.5117 23.2331 29.457 23.332C29.4049 23.431 29.1484 24.0898 28.6875 25.3086C28.2266 26.5247 27.9284 27.2839 27.793 27.5859C27.6602 27.888 27.5039 28.0391 27.3242 28.0391C27.1471 28.0391 26.9857 27.8841 26.8398 27.5742C26.8346 27.5664 26.5716 26.8737 26.0508 25.4961C25.5299 24.1159 25.2396 23.3776 25.1797 23.2812C25.1198 23.1823 25.0417 23.1029 24.9453 23.043C24.7266 22.9102 24.6172 22.8242 24.6172 22.7852ZM30.9688 26.8438V26.9844C30.9688 27.1406 31.0169 27.2604 31.1133 27.3438C31.2096 27.4271 31.332 27.4688 31.4805 27.4688H31.6094C31.8021 27.4688 31.9818 27.4102 32.1484 27.293C32.3177 27.1758 32.4023 27.0651 32.4023 26.9609V26.8281L32.3984 26.8047L32.3906 26.6914C32.3906 26.668 32.3906 26.6445 32.3906 26.6211C32.3906 26.3086 32.3503 26.1523 32.2695 26.1523H32.1484C32.0703 26.1654 32.0026 26.1719 31.9453 26.1719L31.7461 26.1992C31.5534 26.1992 31.3581 26.276 31.1602 26.4297C31.0326 26.5286 30.9688 26.6667 30.9688 26.8438ZM33.0898 25.6914C33.0898 25.7878 33.1641 25.8359 33.3125 25.8359H33.5156L33.5391 25.832L34.2031 25.7891L34.3359 25.7734C34.5234 25.7734 34.6172 25.7057 34.6172 25.5703V25.4297C34.612 25.3984 34.6094 25.375 34.6094 25.3594C34.6094 25.2083 34.5482 25.0547 34.4258 24.8984C34.3034 24.7396 34.1562 24.6602 33.9844 24.6602H33.8438C33.6354 24.6602 33.4583 24.7539 33.3125 24.9414C33.1693 25.1263 33.0977 25.3359 33.0977 25.5703L33.0898 25.6211V25.6914ZM33.1953 26.4883C33.1953 26.6471 33.2305 26.7995 33.3008 26.9453C33.3737 27.0911 33.4518 27.2005 33.5352 27.2734C33.7148 27.4297 33.9427 27.5078 34.2188 27.5078C34.3698 27.5078 34.4935 27.4922 34.5898 27.4609C34.6888 27.4271 34.8203 27.3776 34.9844 27.3125C35.1484 27.2474 35.2318 27.2148 35.2344 27.2148C35.3516 27.2148 35.4102 27.2578 35.4102 27.3438C35.4102 27.5052 35.2617 27.6615 34.9648 27.8125C34.668 27.9635 34.3776 28.0391 34.0938 28.0391C33.8099 28.0391 33.5794 28.0078 33.4023 27.9453C33.2253 27.8828 33.0534 27.793 32.8867 27.6758C32.7201 27.556 32.6159 27.4961 32.5742 27.4961C32.5326 27.4961 32.431 27.5521 32.2695 27.6641C32.1107 27.776 31.9453 27.8659 31.7734 27.9336C31.6042 27.9987 31.3841 28.0312 31.1133 28.0312C30.8451 28.0312 30.6107 27.9492 30.4102 27.7852C30.2096 27.6211 30.1094 27.388 30.1094 27.0859C30.1094 26.5234 30.4922 26.1497 31.2578 25.9648C31.8203 25.8294 32.1068 25.7578 32.1172 25.75C32.2292 25.6797 32.2852 25.5365 32.2852 25.3203C32.2852 25.1016 32.2266 24.9336 32.1094 24.8164C31.9948 24.6966 31.8385 24.6367 31.6406 24.6367C31.4453 24.6367 31.2617 24.7474 31.0898 24.9688C30.918 25.1875 30.7721 25.2969 30.6523 25.2969C30.5768 25.2969 30.5052 25.2734 30.4375 25.2266C30.3698 25.1797 30.3359 25.1094 30.3359 25.0156C30.3359 24.763 30.4779 24.5651 30.7617 24.4219C31.0482 24.276 31.3464 24.2031 31.6562 24.2031C31.9661 24.2031 32.2396 24.2565 32.4766 24.3633C32.7161 24.4701 32.8594 24.5234 32.9062 24.5234C32.9531 24.5234 33.0286 24.4961 33.1328 24.4414C33.4505 24.2721 33.737 24.1875 33.9922 24.1875H34.1289C34.4935 24.1875 34.8112 24.3112 35.082 24.5586C35.207 24.6732 35.3099 24.8203 35.3906 25C35.474 25.1771 35.5156 25.3346 35.5156 25.4727V25.5938C35.5156 25.7812 35.4583 25.901 35.3438 25.9531C35.2318 26.0052 34.9102 26.0482 34.3789 26.082C33.8503 26.1133 33.5638 26.1328 33.5195 26.1406C33.3034 26.1797 33.1953 26.2956 33.1953 26.4883ZM36.2656 27.8633C36.2656 27.8086 36.3242 27.7383 36.4414 27.6523C36.5612 27.5664 36.6419 27.4323 36.6836 27.25C36.7253 27.0651 36.7461 26.3672 36.7461 25.1562C36.7461 23.9453 36.7318 23.2591 36.7031 23.0977C36.6771 22.9362 36.6107 22.8203 36.5039 22.75C36.332 22.638 36.2461 22.569 36.2461 22.543V22.4961C36.2461 22.4518 36.2839 22.4128 36.3594 22.3789C36.5938 22.2773 36.9062 22.2266 37.2969 22.2266H37.375C37.5078 22.2266 37.5846 22.3164 37.6055 22.4961C37.6081 22.5195 37.6094 22.7161 37.6094 23.0859V23.9258L37.6055 24.0859V24.332L37.6016 24.4922C37.6016 24.4922 37.6016 24.9049 37.6016 25.7305C37.6016 26.5013 37.6133 26.9792 37.6367 27.1641C37.6628 27.3464 37.7214 27.4792 37.8125 27.5625C37.8229 27.5703 37.8776 27.6042 37.9766 27.6641C38.0755 27.724 38.125 27.7852 38.125 27.8477C38.125 27.9388 37.9635 27.9844 37.6406 27.9844L37.4805 27.9922H37.3203L36.6797 28.0039H36.5977C36.3763 28.0039 36.2656 27.957 36.2656 27.8633ZM40.3555 24.4336H40.2539C40.1159 24.4336 39.9818 24.513 39.8516 24.6719C39.7214 24.8307 39.6562 25.0156 39.6562 25.2266L39.6484 25.2891L39.6445 25.3867V25.4883L39.6484 25.5195C39.6484 25.7904 39.707 26.0091 39.8242 26.1758C39.9414 26.3424 40.1159 26.4258 40.3477 26.4258H40.375C40.5547 26.4258 40.7083 26.3555 40.8359 26.2148C40.9635 26.0742 41.0273 25.888 41.0273 25.6562V25.5039C41.0195 25.4414 41.0156 25.3906 41.0156 25.3516C41.0156 25.1042 40.9466 24.8893 40.8086 24.707C40.6732 24.5247 40.5221 24.4336 40.3555 24.4336ZM40.0078 27.9062C39.8255 27.9062 39.6706 27.9701 39.543 28.0977C39.4154 28.2253 39.3516 28.3854 39.3516 28.5781V28.6094C39.3516 28.8307 39.4388 29.0052 39.6133 29.1328C39.7878 29.2604 40.026 29.3242 40.3281 29.3242H40.4297C40.7943 29.3242 41.0872 29.2409 41.3086 29.0742C41.5299 28.9076 41.6406 28.7122 41.6406 28.4883L41.6367 28.457C41.6367 28.3086 41.5755 28.1888 41.4531 28.0977C41.3307 28.0091 41.1862 27.9648 41.0195 27.9648C40.9154 27.9518 40.8398 27.9453 40.793 27.9453L40.6602 27.9336H40.5938L40.3594 27.918L40.1992 27.9062H40.0078ZM42.4102 24.3906C42.4102 24.5391 42.3164 24.6341 42.1289 24.6758C41.9414 24.7148 41.8477 24.7917 41.8477 24.9062L41.8594 24.9883L41.875 25.082L41.8945 25.1836C41.9076 25.2695 41.9141 25.3906 41.9141 25.5469C41.9141 25.7031 41.8698 25.8646 41.7812 26.0312C41.5339 26.4922 41.0573 26.7448 40.3516 26.7891C40.125 26.8047 39.9805 26.8242 39.918 26.8477C39.7826 26.8997 39.7148 26.987 39.7148 27.1094C39.7148 27.2318 39.8151 27.3177 40.0156 27.3672C40.0443 27.375 40.3034 27.3997 40.793 27.4414C41.2826 27.4805 41.6094 27.5417 41.7734 27.625C42.1198 27.7969 42.293 28.0456 42.293 28.3711C42.293 28.7982 42.1016 29.1458 41.7188 29.4141C41.3385 29.6823 40.8398 29.8164 40.2227 29.8164C39.7878 29.8164 39.4258 29.7331 39.1367 29.5664C39.0039 29.4909 38.8958 29.3919 38.8125 29.2695C38.7318 29.1497 38.6914 29.0247 38.6914 28.8945C38.6914 28.6628 38.7604 28.4701 38.8984 28.3164C39.1198 28.0716 39.2305 27.9414 39.2305 27.9258C39.2305 27.9102 39.1823 27.8411 39.0859 27.7188C38.9896 27.5964 38.9414 27.4688 38.9414 27.3359C38.9414 27.2031 39.0039 27.0599 39.1289 26.9062C39.2565 26.75 39.3203 26.6628 39.3203 26.6445C39.3203 26.6263 39.2422 26.4935 39.0859 26.2461C38.9297 25.9961 38.8516 25.7591 38.8516 25.5352C38.8516 25.3112 38.8997 25.112 38.9961 24.9375C39.2695 24.4401 39.7786 24.1914 40.5234 24.1914H40.6367L41.1797 24.2266L41.3789 24.2344C41.4466 24.237 41.5156 24.2383 41.5859 24.2383L42 24.2109C42.2734 24.2109 42.4102 24.2708 42.4102 24.3906ZM47.6328 25.3242C47.6328 25.1133 47.5651 24.9453 47.4297 24.8203C47.2943 24.6927 47.1146 24.6289 46.8906 24.6289H46.8164C46.6992 24.6289 46.5742 24.6641 46.4414 24.7344C46.3086 24.8047 46.1992 24.9062 46.1133 25.0391C45.9414 25.3047 45.8555 25.6341 45.8555 26.0273V26.2578C45.8555 26.6484 45.9427 26.9714 46.1172 27.2266C46.2943 27.4818 46.5091 27.6094 46.7617 27.6094H46.875C47.0964 27.6094 47.2773 27.5339 47.418 27.3828C47.5586 27.2318 47.6289 27.0391 47.6289 26.8047L47.6367 26.7227V26.6406L47.6445 26.4375C47.6445 26.3125 47.6445 26.1875 47.6445 26.0625L47.6484 25.9375V25.8164L47.6445 25.7734V25.5664L47.6406 25.5273V25.4453C47.6354 25.3932 47.6328 25.3529 47.6328 25.3242ZM47.6523 24.2188C47.6758 24.1615 47.6875 23.9896 47.6875 23.7031C47.6875 23.4167 47.6654 23.207 47.6211 23.0742C47.5768 22.9388 47.4987 22.8281 47.3867 22.7422C47.2773 22.6536 47.2227 22.5872 47.2227 22.543C47.2227 22.4987 47.2526 22.4596 47.3125 22.4258C47.474 22.332 47.737 22.2852 48.1016 22.2852H48.1953C48.3776 22.2852 48.4818 22.3828 48.5078 22.5781C48.5156 22.638 48.5195 23.3828 48.5195 24.8125C48.5195 26.2396 48.5299 27.0234 48.5508 27.1641C48.5716 27.3021 48.6211 27.4102 48.6992 27.4883C48.7148 27.5039 48.7643 27.5443 48.8477 27.6094C48.9336 27.6719 48.9766 27.7279 48.9766 27.7773C48.9766 27.8242 48.9401 27.8672 48.8672 27.9062C48.7188 27.987 48.4766 28.0273 48.1406 28.0273C48.0234 28.0273 47.9297 27.9922 47.8594 27.9219C47.7214 27.7839 47.6458 27.7148 47.6328 27.7148C47.6224 27.7148 47.5638 27.7448 47.457 27.8047C47.3503 27.8646 47.2214 27.9258 47.0703 27.9883C46.9219 28.0482 46.737 28.0781 46.5156 28.0781C46.2943 28.0781 46.0898 28.0299 45.9023 27.9336C45.556 27.7565 45.3125 27.4635 45.1719 27.0547C45.0885 26.8099 45.0469 26.5417 45.0469 26.25C45.0469 25.6615 45.2148 25.1823 45.5508 24.8125C45.8893 24.4427 46.3555 24.2578 46.9492 24.2578L47.4609 24.3047C47.5651 24.3047 47.6289 24.276 47.6523 24.2188ZM51.7383 26.1914H51.6719C51.3307 26.1914 51.0456 26.2682 50.8164 26.4219C50.5898 26.5729 50.4766 26.7617 50.4766 26.9883V27.0664C50.4766 27.1992 50.5169 27.319 50.5977 27.4258C50.681 27.5299 50.7878 27.582 50.918 27.582L50.9648 27.5898H51.082C51.3529 27.5898 51.5742 27.4792 51.7461 27.2578C51.8216 27.1615 51.8594 26.9635 51.8594 26.6641C51.8594 26.6406 51.8594 26.6172 51.8594 26.5938L51.8633 26.5V26.4062C51.8633 26.263 51.8216 26.1914 51.7383 26.1914ZM49.8398 24.9297C49.8398 24.737 49.9922 24.5651 50.2969 24.4141C50.6042 24.2604 50.9219 24.1836 51.25 24.1836C51.2604 24.1836 51.2708 24.1836 51.2812 24.1836C51.5938 24.1836 51.8438 24.2214 52.0312 24.2969C52.4115 24.4479 52.6289 24.7682 52.6836 25.2578C52.6888 25.3073 52.6914 25.6354 52.6914 26.2422C52.6914 26.8464 52.707 27.2005 52.7383 27.3047C52.7721 27.4089 52.8607 27.4857 53.0039 27.5352C53.1497 27.5846 53.2227 27.6315 53.2227 27.6758C53.2227 27.7695 53.1758 27.8411 53.082 27.8906C52.8945 27.9896 52.7096 28.0391 52.5273 28.0391C52.3477 28.0391 52.2135 27.9974 52.125 27.9141C51.9661 27.7656 51.8815 27.6914 51.8711 27.6914C51.8607 27.6914 51.7135 27.7578 51.4297 27.8906C51.1458 28.0208 50.8971 28.0859 50.6836 28.0859C50.3633 28.0859 50.112 27.9974 49.9297 27.8203C49.7474 27.6432 49.6562 27.4284 49.6562 27.1758V27.0781C49.6562 26.8073 49.7734 26.569 50.0078 26.3633C50.2422 26.1576 50.6641 25.9974 51.2734 25.8828C51.4948 25.8411 51.6341 25.8021 51.6914 25.7656C51.806 25.6927 51.8633 25.5443 51.8633 25.3203C51.8633 25.0964 51.8034 24.9245 51.6836 24.8047C51.5638 24.6849 51.4036 24.625 51.2031 24.625C51.0026 24.625 50.8086 24.7422 50.6211 24.9766C50.4362 25.2083 50.2669 25.3242 50.1133 25.3242C49.931 25.3242 49.8398 25.1927 49.8398 24.9297ZM55.5078 27.4844L56.1016 27.3945C56.1693 27.3945 56.2031 27.4479 56.2031 27.5547C56.2031 27.6589 56.1029 27.7669 55.9023 27.8789C55.7018 27.9909 55.4909 28.0469 55.2695 28.0469H55.1914C55.0169 28.0469 54.8594 28.0013 54.7188 27.9102C54.5781 27.819 54.4753 27.707 54.4102 27.5742C54.2982 27.3424 54.2422 26.9036 54.2422 26.2578C54.2422 25.6094 54.2188 25.2044 54.1719 25.043C54.1276 24.8815 54.069 24.7708 53.9961 24.7109C53.8607 24.6016 53.793 24.5417 53.793 24.5312C53.793 24.4635 53.8281 24.4062 53.8984 24.3594C54.0781 24.2396 54.1758 24.1719 54.1914 24.1562C54.2096 24.138 54.3099 23.9245 54.4922 23.5156C54.5833 23.3125 54.6862 23.2109 54.8008 23.2109C54.918 23.2109 54.9961 23.2526 55.0352 23.3359C55.0456 23.3568 55.0677 23.4701 55.1016 23.6758C55.138 23.8815 55.1888 24.0143 55.2539 24.0742C55.319 24.1315 55.4635 24.1875 55.6875 24.2422C55.9115 24.2943 56.0234 24.3698 56.0234 24.4688C56.0234 24.5677 55.8997 24.6419 55.6523 24.6914C55.4049 24.7409 55.2552 24.8047 55.2031 24.8828C55.112 25.0156 55.0664 25.3906 55.0664 26.0078C55.0664 26.625 55.0951 27.0143 55.1523 27.1758C55.2253 27.3815 55.3438 27.4844 55.5078 27.4844ZM57.6133 25.9883V26.1328C57.6133 26.5755 57.6992 26.9427 57.8711 27.2344C57.9518 27.3724 58.0547 27.4818 58.1797 27.5625C58.3047 27.6432 58.431 27.6836 58.5586 27.6836H58.6367C58.8737 27.6836 59.0781 27.569 59.25 27.3398C59.4245 27.1081 59.5117 26.7799 59.5117 26.3555V26.0781C59.5117 25.6589 59.4245 25.3034 59.25 25.0117C59.0781 24.7174 58.8594 24.5703 58.5938 24.5703H58.4727C58.2331 24.5703 58.0299 24.6992 57.8633 24.957C57.6966 25.2148 57.6133 25.5586 57.6133 25.9883ZM60.4531 26.0039V26.1992C60.4531 26.4049 60.4115 26.6302 60.3281 26.875C60.1536 27.3854 59.806 27.7422 59.2852 27.9453C59.0586 28.0339 58.8398 28.0781 58.6289 28.0781H58.5C58.0026 28.0781 57.5872 27.9115 57.2539 27.5781C57.1029 27.4271 56.9805 27.2279 56.8867 26.9805C56.793 26.7331 56.7461 26.4701 56.7461 26.1914V26.125C56.7461 25.8724 56.7904 25.6172 56.8789 25.3594C57.0508 24.8568 57.388 24.5078 57.8906 24.3125C58.1172 24.224 58.3346 24.1797 58.543 24.1797H58.7383C58.9701 24.1797 59.1979 24.2318 59.4219 24.3359C59.8464 24.5339 60.1419 24.849 60.3086 25.2812C60.4049 25.5365 60.4531 25.7773 60.4531 26.0039Z" fill="black"/>
<path d="M111 25L101 19.2265V30.7735L111 25ZM91 25V26H102V25V24H91V25Z" fill="black"/>
<rect width="86" height="50" transform="translate(116)" fill="#EDD9C4"/>
<path d="M138.43 17.7227C138.43 17.7721 138.354 17.8451 138.203 17.9414C138.055 18.0378 137.962 18.1693 137.926 18.3359C137.892 18.5 137.875 19.1549 137.875 20.3008C137.875 21.444 137.896 22.099 137.938 22.2656C137.982 22.4297 138.077 22.5534 138.223 22.6367C138.371 22.7174 138.445 22.793 138.445 22.8633C138.445 22.9596 138.327 23.0078 138.09 23.0078L138.004 23.0039L137.824 23C137.764 22.9974 137.704 22.9961 137.645 22.9961L137.473 22.9883H136.945C136.521 22.9883 136.309 22.9505 136.309 22.875V22.8203C136.309 22.7708 136.392 22.6979 136.559 22.6016C136.728 22.5026 136.833 22.3646 136.875 22.1875C136.917 22.0078 136.938 21.3711 136.938 20.2773C136.938 19.181 136.913 18.5417 136.863 18.3594C136.814 18.1745 136.736 18.0534 136.629 17.9961C136.415 17.8789 136.309 17.7904 136.309 17.7305C136.309 17.6289 136.711 17.5781 137.516 17.5781L137.945 17.5703H138.199C138.353 17.5703 138.43 17.6211 138.43 17.7227ZM139.754 22.9688C139.387 22.9688 139.203 22.9167 139.203 22.8125C139.203 22.7266 139.251 22.6562 139.348 22.6016C139.522 22.5026 139.624 22.4141 139.652 22.3359C139.681 22.2552 139.695 21.8789 139.695 21.207C139.695 20.5326 139.674 20.138 139.633 20.0234C139.594 19.9062 139.521 19.8099 139.414 19.7344C139.307 19.6589 139.254 19.5977 139.254 19.5508C139.254 19.5039 139.289 19.4596 139.359 19.418C139.523 19.3216 139.784 19.2734 140.141 19.2734C140.247 19.2734 140.331 19.3099 140.391 19.3828C140.411 19.4089 140.44 19.4661 140.477 19.5547C140.516 19.6406 140.542 19.6836 140.555 19.6836C140.604 19.681 140.681 19.6458 140.785 19.5781C141.145 19.3359 141.47 19.2148 141.762 19.2148H141.77H141.895C142.105 19.2148 142.296 19.2669 142.465 19.3711C142.634 19.4753 142.764 19.6315 142.855 19.8398C142.949 20.0482 142.996 20.5026 142.996 21.2031C142.996 21.901 143.01 22.2917 143.039 22.375C143.07 22.4557 143.155 22.5312 143.293 22.6016C143.434 22.6719 143.504 22.7409 143.504 22.8086C143.504 22.9258 143.134 22.9844 142.395 22.9844H142.277C142.043 22.9844 141.926 22.9284 141.926 22.8164C141.926 22.793 141.954 22.737 142.012 22.6484C142.069 22.5573 142.108 22.457 142.129 22.3477C142.15 22.2383 142.16 21.8789 142.16 21.2695C142.16 20.6576 142.122 20.2643 142.047 20.0898C141.943 19.8503 141.77 19.7305 141.527 19.7305C141.35 19.7305 141.178 19.7721 141.012 19.8555C140.848 19.9362 140.728 20.0521 140.652 20.2031C140.579 20.3516 140.543 20.7096 140.543 21.2773C140.543 21.8424 140.559 22.1849 140.59 22.3047C140.621 22.4219 140.659 22.5169 140.703 22.5898L140.848 22.8242C140.848 22.9258 140.643 22.9766 140.234 22.9766L139.996 22.9688H139.754ZM146.66 20.3242C146.66 20.1133 146.592 19.9453 146.457 19.8203C146.322 19.6927 146.142 19.6289 145.918 19.6289H145.844C145.727 19.6289 145.602 19.6641 145.469 19.7344C145.336 19.8047 145.227 19.9062 145.141 20.0391C144.969 20.3047 144.883 20.6341 144.883 21.0273V21.2578C144.883 21.6484 144.97 21.9714 145.145 22.2266C145.322 22.4818 145.536 22.6094 145.789 22.6094H145.902C146.124 22.6094 146.305 22.5339 146.445 22.3828C146.586 22.2318 146.656 22.0391 146.656 21.8047L146.664 21.7227V21.6406L146.672 21.4375C146.672 21.3125 146.672 21.1875 146.672 21.0625L146.676 20.9375V20.8164L146.672 20.7734V20.5664L146.668 20.5273V20.4453C146.663 20.3932 146.66 20.3529 146.66 20.3242ZM146.68 19.2188C146.703 19.1615 146.715 18.9896 146.715 18.7031C146.715 18.4167 146.693 18.207 146.648 18.0742C146.604 17.9388 146.526 17.8281 146.414 17.7422C146.305 17.6536 146.25 17.5872 146.25 17.543C146.25 17.4987 146.28 17.4596 146.34 17.4258C146.501 17.332 146.764 17.2852 147.129 17.2852H147.223C147.405 17.2852 147.509 17.3828 147.535 17.5781C147.543 17.638 147.547 18.3828 147.547 19.8125C147.547 21.2396 147.557 22.0234 147.578 22.1641C147.599 22.3021 147.648 22.4102 147.727 22.4883C147.742 22.5039 147.792 22.5443 147.875 22.6094C147.961 22.6719 148.004 22.7279 148.004 22.7773C148.004 22.8242 147.967 22.8672 147.895 22.9062C147.746 22.987 147.504 23.0273 147.168 23.0273C147.051 23.0273 146.957 22.9922 146.887 22.9219C146.749 22.7839 146.673 22.7148 146.66 22.7148C146.65 22.7148 146.591 22.7448 146.484 22.8047C146.378 22.8646 146.249 22.9258 146.098 22.9883C145.949 23.0482 145.764 23.0781 145.543 23.0781C145.322 23.0781 145.117 23.0299 144.93 22.9336C144.583 22.7565 144.34 22.4635 144.199 22.0547C144.116 21.8099 144.074 21.5417 144.074 21.25C144.074 20.6615 144.242 20.1823 144.578 19.8125C144.917 19.4427 145.383 19.2578 145.977 19.2578L146.488 19.3047C146.592 19.3047 146.656 19.276 146.68 19.2188ZM150.395 22.4844L150.988 22.3945C151.056 22.3945 151.09 22.4479 151.09 22.5547C151.09 22.6589 150.99 22.7669 150.789 22.8789C150.589 22.9909 150.378 23.0469 150.156 23.0469H150.078C149.904 23.0469 149.746 23.0013 149.605 22.9102C149.465 22.819 149.362 22.707 149.297 22.5742C149.185 22.3424 149.129 21.9036 149.129 21.2578C149.129 20.6094 149.105 20.2044 149.059 20.043C149.014 19.8815 148.956 19.7708 148.883 19.7109C148.747 19.6016 148.68 19.5417 148.68 19.5312C148.68 19.4635 148.715 19.4062 148.785 19.3594C148.965 19.2396 149.062 19.1719 149.078 19.1562C149.096 19.138 149.197 18.9245 149.379 18.5156C149.47 18.3125 149.573 18.2109 149.688 18.2109C149.805 18.2109 149.883 18.2526 149.922 18.3359C149.932 18.3568 149.954 18.4701 149.988 18.6758C150.025 18.8815 150.076 19.0143 150.141 19.0742C150.206 19.1315 150.35 19.1875 150.574 19.2422C150.798 19.2943 150.91 19.3698 150.91 19.4688C150.91 19.5677 150.786 19.6419 150.539 19.6914C150.292 19.7409 150.142 19.8047 150.09 19.8828C149.999 20.0156 149.953 20.3906 149.953 21.0078C149.953 21.625 149.982 22.0143 150.039 22.1758C150.112 22.3815 150.23 22.4844 150.395 22.4844ZM153.703 21.1914H153.637C153.296 21.1914 153.01 21.2682 152.781 21.4219C152.555 21.5729 152.441 21.7617 152.441 21.9883V22.0664C152.441 22.1992 152.482 22.319 152.562 22.4258C152.646 22.5299 152.753 22.582 152.883 22.582L152.93 22.5898H153.047C153.318 22.5898 153.539 22.4792 153.711 22.2578C153.786 22.1615 153.824 21.9635 153.824 21.6641C153.824 21.6406 153.824 21.6172 153.824 21.5938L153.828 21.5V21.4062C153.828 21.263 153.786 21.1914 153.703 21.1914ZM151.805 19.9297C151.805 19.737 151.957 19.5651 152.262 19.4141C152.569 19.2604 152.887 19.1836 153.215 19.1836C153.225 19.1836 153.236 19.1836 153.246 19.1836C153.559 19.1836 153.809 19.2214 153.996 19.2969C154.376 19.4479 154.594 19.7682 154.648 20.2578C154.654 20.3073 154.656 20.6354 154.656 21.2422C154.656 21.8464 154.672 22.2005 154.703 22.3047C154.737 22.4089 154.826 22.4857 154.969 22.5352C155.115 22.5846 155.188 22.6315 155.188 22.6758C155.188 22.7695 155.141 22.8411 155.047 22.8906C154.859 22.9896 154.674 23.0391 154.492 23.0391C154.312 23.0391 154.178 22.9974 154.09 22.9141C153.931 22.7656 153.846 22.6914 153.836 22.6914C153.826 22.6914 153.678 22.7578 153.395 22.8906C153.111 23.0208 152.862 23.0859 152.648 23.0859C152.328 23.0859 152.077 22.9974 151.895 22.8203C151.712 22.6432 151.621 22.4284 151.621 22.1758V22.0781C151.621 21.8073 151.738 21.569 151.973 21.3633C152.207 21.1576 152.629 20.9974 153.238 20.8828C153.46 20.8411 153.599 20.8021 153.656 20.7656C153.771 20.6927 153.828 20.5443 153.828 20.3203C153.828 20.0964 153.768 19.9245 153.648 19.8047C153.529 19.6849 153.368 19.625 153.168 19.625C152.967 19.625 152.773 19.7422 152.586 19.9766C152.401 20.2083 152.232 20.3242 152.078 20.3242C151.896 20.3242 151.805 20.1927 151.805 19.9297ZM158.352 21.2461C158.557 21.4414 158.66 21.6888 158.66 21.9883C158.66 22.2852 158.538 22.5404 158.293 22.7539C158.048 22.9648 157.71 23.0703 157.277 23.0703H157.172C156.68 23.0703 156.305 23.0091 156.047 22.8867C155.904 22.819 155.832 22.668 155.832 22.4336V22.3359C155.832 22.0365 155.888 21.8867 156 21.8867C156.094 21.8867 156.204 21.9753 156.332 22.1523C156.46 22.3268 156.566 22.444 156.652 22.5039C156.819 22.6185 157.014 22.6758 157.238 22.6758C157.465 22.6758 157.632 22.6289 157.738 22.5352C157.845 22.4388 157.898 22.3125 157.898 22.1562C157.898 22 157.807 21.8555 157.625 21.7227C157.529 21.6523 157.303 21.5417 156.949 21.3906C156.598 21.2396 156.335 21.082 156.16 20.918C155.986 20.7513 155.898 20.5169 155.898 20.2148C155.898 19.9128 156.025 19.668 156.277 19.4805C156.53 19.2904 156.841 19.1953 157.211 19.1953H157.316C157.801 19.1953 158.141 19.2526 158.336 19.3672C158.438 19.4271 158.488 19.5938 158.488 19.8672C158.488 20.1406 158.423 20.2773 158.293 20.2773C158.22 20.2773 158.12 20.1966 157.992 20.0352C157.867 19.8711 157.753 19.7552 157.648 19.6875C157.544 19.6172 157.4 19.582 157.215 19.582C157.033 19.582 156.888 19.6237 156.781 19.707C156.674 19.7904 156.621 19.9115 156.621 20.0703C156.621 20.2266 156.719 20.3672 156.914 20.4922C156.964 20.526 157.18 20.6263 157.562 20.793C157.945 20.9596 158.208 21.1107 158.352 21.2461ZM161.004 22.4844L161.598 22.3945C161.665 22.3945 161.699 22.4479 161.699 22.5547C161.699 22.6589 161.599 22.7669 161.398 22.8789C161.198 22.9909 160.987 23.0469 160.766 23.0469H160.688C160.513 23.0469 160.355 23.0013 160.215 22.9102C160.074 22.819 159.971 22.707 159.906 22.5742C159.794 22.3424 159.738 21.9036 159.738 21.2578C159.738 20.6094 159.715 20.2044 159.668 20.043C159.624 19.8815 159.565 19.7708 159.492 19.7109C159.357 19.6016 159.289 19.5417 159.289 19.5312C159.289 19.4635 159.324 19.4062 159.395 19.3594C159.574 19.2396 159.672 19.1719 159.688 19.1562C159.706 19.138 159.806 18.9245 159.988 18.5156C160.079 18.3125 160.182 18.2109 160.297 18.2109C160.414 18.2109 160.492 18.2526 160.531 18.3359C160.542 18.3568 160.564 18.4701 160.598 18.6758C160.634 18.8815 160.685 19.0143 160.75 19.0742C160.815 19.1315 160.96 19.1875 161.184 19.2422C161.408 19.2943 161.52 19.3698 161.52 19.4688C161.52 19.5677 161.396 19.6419 161.148 19.6914C160.901 19.7409 160.751 19.8047 160.699 19.8828C160.608 20.0156 160.562 20.3906 160.562 21.0078C160.562 21.625 160.591 22.0143 160.648 22.1758C160.721 22.3815 160.84 22.4844 161.004 22.4844ZM164.855 22.9688C164.488 22.9688 164.305 22.9167 164.305 22.8125C164.305 22.7266 164.353 22.6562 164.449 22.6016C164.624 22.5026 164.725 22.4141 164.754 22.3359C164.783 22.2552 164.797 21.8789 164.797 21.207C164.797 20.5326 164.776 20.138 164.734 20.0234C164.695 19.9062 164.622 19.8099 164.516 19.7344C164.409 19.6589 164.355 19.5977 164.355 19.5508C164.355 19.5039 164.391 19.4596 164.461 19.418C164.625 19.3216 164.885 19.2734 165.242 19.2734C165.349 19.2734 165.432 19.3099 165.492 19.3828C165.513 19.4089 165.542 19.4661 165.578 19.5547C165.617 19.6406 165.643 19.6836 165.656 19.6836C165.706 19.681 165.783 19.6458 165.887 19.5781C166.246 19.3359 166.572 19.2148 166.863 19.2148H166.871H166.996C167.207 19.2148 167.397 19.2669 167.566 19.3711C167.736 19.4753 167.866 19.6315 167.957 19.8398C168.051 20.0482 168.098 20.5026 168.098 21.2031C168.098 21.901 168.112 22.2917 168.141 22.375C168.172 22.4557 168.257 22.5312 168.395 22.6016C168.535 22.6719 168.605 22.7409 168.605 22.8086C168.605 22.9258 168.236 22.9844 167.496 22.9844H167.379C167.145 22.9844 167.027 22.9284 167.027 22.8164C167.027 22.793 167.056 22.737 167.113 22.6484C167.171 22.5573 167.21 22.457 167.23 22.3477C167.251 22.2383 167.262 21.8789 167.262 21.2695C167.262 20.6576 167.224 20.2643 167.148 20.0898C167.044 19.8503 166.871 19.7305 166.629 19.7305C166.452 19.7305 166.28 19.7721 166.113 19.8555C165.949 19.9362 165.829 20.0521 165.754 20.2031C165.681 20.3516 165.645 20.7096 165.645 21.2773C165.645 21.8424 165.66 22.1849 165.691 22.3047C165.723 22.4219 165.76 22.5169 165.805 22.5898L165.949 22.8242C165.949 22.9258 165.745 22.9766 165.336 22.9766L165.098 22.9688H164.855ZM171.227 21.1914H171.16C170.819 21.1914 170.534 21.2682 170.305 21.4219C170.078 21.5729 169.965 21.7617 169.965 21.9883V22.0664C169.965 22.1992 170.005 22.319 170.086 22.4258C170.169 22.5299 170.276 22.582 170.406 22.582L170.453 22.5898H170.57C170.841 22.5898 171.062 22.4792 171.234 22.2578C171.31 22.1615 171.348 21.9635 171.348 21.6641C171.348 21.6406 171.348 21.6172 171.348 21.5938L171.352 21.5V21.4062C171.352 21.263 171.31 21.1914 171.227 21.1914ZM169.328 19.9297C169.328 19.737 169.48 19.5651 169.785 19.4141C170.092 19.2604 170.41 19.1836 170.738 19.1836C170.749 19.1836 170.759 19.1836 170.77 19.1836C171.082 19.1836 171.332 19.2214 171.52 19.2969C171.9 19.4479 172.117 19.7682 172.172 20.2578C172.177 20.3073 172.18 20.6354 172.18 21.2422C172.18 21.8464 172.195 22.2005 172.227 22.3047C172.26 22.4089 172.349 22.4857 172.492 22.5352C172.638 22.5846 172.711 22.6315 172.711 22.6758C172.711 22.7695 172.664 22.8411 172.57 22.8906C172.383 22.9896 172.198 23.0391 172.016 23.0391C171.836 23.0391 171.702 22.9974 171.613 22.9141C171.454 22.7656 171.37 22.6914 171.359 22.6914C171.349 22.6914 171.202 22.7578 170.918 22.8906C170.634 23.0208 170.385 23.0859 170.172 23.0859C169.852 23.0859 169.6 22.9974 169.418 22.8203C169.236 22.6432 169.145 22.4284 169.145 22.1758V22.0781C169.145 21.8073 169.262 21.569 169.496 21.3633C169.73 21.1576 170.152 20.9974 170.762 20.8828C170.983 20.8411 171.122 20.8021 171.18 20.7656C171.294 20.6927 171.352 20.5443 171.352 20.3203C171.352 20.0964 171.292 19.9245 171.172 19.8047C171.052 19.6849 170.892 19.625 170.691 19.625C170.491 19.625 170.297 19.7422 170.109 19.9766C169.924 20.2083 169.755 20.3242 169.602 20.3242C169.419 20.3242 169.328 20.1927 169.328 19.9297ZM175.113 23.0508H175.023C174.901 23.0508 174.78 22.9375 174.66 22.7109C174.6 22.5964 174.417 22.1471 174.109 21.3633C173.802 20.5794 173.615 20.1276 173.547 20.0078C173.479 19.8854 173.374 19.7773 173.23 19.6836C173.087 19.5872 173.016 19.5143 173.016 19.4648C173.016 19.3841 173.073 19.332 173.188 19.3086C173.302 19.2852 173.564 19.2734 173.973 19.2734C174.382 19.2734 174.586 19.332 174.586 19.4492C174.586 19.457 174.572 19.5 174.543 19.5781C174.514 19.6536 174.5 19.737 174.5 19.8281C174.5 20.1849 174.703 20.8333 175.109 21.7734C175.185 21.9453 175.238 22.0312 175.27 22.0312C175.301 22.0312 175.352 21.9531 175.422 21.7969C175.841 20.8698 176.051 20.2266 176.051 19.8672C176.051 19.7786 176.017 19.6849 175.949 19.5859C175.882 19.487 175.848 19.4362 175.848 19.4336C175.848 19.3216 176.09 19.2656 176.574 19.2656H176.668C176.986 19.2656 177.145 19.3203 177.145 19.4297C177.145 19.5234 177.076 19.6159 176.938 19.707C176.799 19.7956 176.694 19.9062 176.621 20.0391C176.587 20.099 176.414 20.5169 176.102 21.293C175.789 22.0664 175.578 22.5534 175.469 22.7539C175.359 22.9518 175.241 23.0508 175.113 23.0508ZM178.137 22.9688C177.77 22.9688 177.586 22.9167 177.586 22.8125C177.586 22.7266 177.634 22.6562 177.73 22.6016C177.905 22.5026 178.007 22.4141 178.035 22.3359C178.064 22.2552 178.078 21.8789 178.078 21.207C178.078 20.5326 178.057 20.138 178.016 20.0234C177.977 19.9062 177.904 19.8099 177.797 19.7344C177.69 19.6589 177.637 19.5977 177.637 19.5508C177.637 19.5039 177.672 19.4596 177.742 19.418C177.906 19.3216 178.167 19.2734 178.523 19.2734C178.63 19.2734 178.714 19.3099 178.773 19.3828C178.794 19.4089 178.823 19.4661 178.859 19.5547C178.898 19.6406 178.924 19.6836 178.938 19.6836C178.987 19.681 179.064 19.6458 179.168 19.5781C179.527 19.3359 179.853 19.2148 180.145 19.2148H180.152H180.277C180.488 19.2148 180.678 19.2669 180.848 19.3711C181.017 19.4753 181.147 19.6315 181.238 19.8398C181.332 20.0482 181.379 20.5026 181.379 21.2031C181.379 21.901 181.393 22.2917 181.422 22.375C181.453 22.4557 181.538 22.5312 181.676 22.6016C181.816 22.6719 181.887 22.7409 181.887 22.8086C181.887 22.9258 181.517 22.9844 180.777 22.9844H180.66C180.426 22.9844 180.309 22.9284 180.309 22.8164C180.309 22.793 180.337 22.737 180.395 22.6484C180.452 22.5573 180.491 22.457 180.512 22.3477C180.533 22.2383 180.543 21.8789 180.543 21.2695C180.543 20.6576 180.505 20.2643 180.43 20.0898C180.326 19.8503 180.152 19.7305 179.91 19.7305C179.733 19.7305 179.561 19.7721 179.395 19.8555C179.23 19.9362 179.111 20.0521 179.035 20.2031C178.962 20.3516 178.926 20.7096 178.926 21.2773C178.926 21.8424 178.941 22.1849 178.973 22.3047C179.004 22.4219 179.042 22.5169 179.086 22.5898L179.23 22.8242C179.23 22.9258 179.026 22.9766 178.617 22.9766L178.379 22.9688H178.137ZM148.82 28.7031C148.82 28.9427 148.923 29.2096 149.129 29.5039C149.212 29.6237 149.277 29.6836 149.324 29.6836H149.344C149.464 29.6836 149.605 29.5365 149.77 29.2422C149.845 29.1068 149.883 28.9596 149.883 28.8008V28.6211C149.883 28.4492 149.832 28.2917 149.73 28.1484C149.632 28.0052 149.508 27.9336 149.359 27.9336H149.34C149.217 27.9336 149.103 27.9948 148.996 28.1172C148.889 28.237 148.836 28.362 148.836 28.4922L148.82 28.6016V28.7031ZM148.109 31.4102V31.543C148.109 31.7982 148.207 32.0326 148.402 32.2461C148.598 32.457 148.835 32.5625 149.113 32.5625H149.277C149.457 32.5625 149.645 32.513 149.84 32.4141C150.038 32.3151 150.137 32.2161 150.137 32.1172V32.0938C150.137 32.0703 149.909 31.7904 149.453 31.2539C149 30.7174 148.759 30.4492 148.73 30.4492H148.703C148.594 30.4492 148.467 30.5534 148.324 30.7617C148.181 30.9674 148.109 31.1836 148.109 31.4102ZM151.812 29.9727C151.974 29.9727 152.055 30.0234 152.055 30.125C152.055 30.1589 151.993 30.2539 151.871 30.4102C151.751 30.5638 151.635 30.7747 151.523 31.043C151.414 31.3086 151.359 31.5638 151.359 31.8086C151.359 31.9414 151.414 32.0729 151.523 32.2031C151.635 32.3307 151.777 32.4362 151.949 32.5195C152.124 32.6003 152.211 32.6589 152.211 32.6953V32.7305C152.211 32.7461 152.188 32.7695 152.141 32.8008C151.979 32.9128 151.749 32.9688 151.449 32.9688C151.298 32.9688 151.107 32.9258 150.875 32.8398C150.646 32.7539 150.49 32.7109 150.406 32.7109C150.326 32.7109 150.121 32.7656 149.793 32.875C149.47 32.9844 149.191 33.0404 148.957 33.043C148.47 33.043 148.081 32.918 147.789 32.668C147.628 32.5273 147.508 32.3685 147.43 32.1914C147.352 32.0117 147.312 31.8438 147.312 31.6875V31.5625C147.312 31.1589 147.526 30.7734 147.953 30.4062C148.195 30.1979 148.316 30.0273 148.316 29.8945C148.316 29.8711 148.264 29.7318 148.16 29.4766C148.056 29.2214 148.004 29.0143 148.004 28.8555C148.004 28.4857 148.129 28.1888 148.379 27.9648C148.629 27.7409 148.928 27.6289 149.277 27.6289C149.629 27.6289 149.906 27.7266 150.109 27.9219C150.315 28.1146 150.418 28.3372 150.418 28.5898C150.418 28.8398 150.337 29.099 150.176 29.3672C150.017 29.6328 149.938 29.8685 149.938 30.0742C149.938 30.2799 150.008 30.4857 150.148 30.6914C150.289 30.8971 150.43 31 150.57 31C150.711 31 150.814 30.944 150.879 30.832C150.944 30.7201 150.977 30.5977 150.977 30.4648L150.949 30.2539C150.949 30.0664 151.237 29.9727 151.812 29.9727ZM158.023 32.2695C158.044 32.168 158.055 31.8203 158.055 31.2266C158.055 30.6328 158.009 30.2448 157.918 30.0625C157.827 29.8802 157.658 29.7891 157.41 29.7891C157.262 29.7891 157.108 29.8477 156.949 29.9648C156.79 30.0794 156.685 30.207 156.633 30.3477C156.581 30.4883 156.555 30.8164 156.555 31.332C156.555 31.8451 156.559 32.1615 156.566 32.2812C156.577 32.401 156.596 32.4948 156.625 32.5625L156.676 32.6602C156.717 32.7409 156.738 32.7995 156.738 32.8359C156.738 32.9323 156.539 32.9805 156.141 32.9805C155.742 32.9805 155.483 32.9401 155.363 32.8594L155.293 32.7852C155.293 32.7122 155.319 32.6497 155.371 32.5977C155.527 32.4388 155.62 32.3177 155.648 32.2344C155.677 32.151 155.691 31.7826 155.691 31.1289C155.691 30.4727 155.635 30.0443 155.523 29.8438L155.441 29.7383C155.374 29.6523 155.34 29.5872 155.34 29.543C155.34 29.4961 155.388 29.4427 155.484 29.3828C155.583 29.3203 155.736 29.2891 155.941 29.2891C156.15 29.2891 156.306 29.3451 156.41 29.457C156.514 29.5664 156.589 29.6211 156.633 29.6211L156.75 29.5664L157.047 29.3906C157.289 29.263 157.535 29.1992 157.785 29.1992C158.035 29.1992 158.273 29.276 158.5 29.4297C158.727 29.5807 158.868 29.6562 158.926 29.6562L159.059 29.5938L159.203 29.5078C159.326 29.4349 159.457 29.3698 159.598 29.3125C159.733 29.2552 159.913 29.2266 160.137 29.2266C160.564 29.2266 160.866 29.4036 161.043 29.7578C161.173 30.0182 161.238 30.6276 161.238 31.5859C161.238 31.9974 161.251 32.237 161.277 32.3047C161.303 32.3698 161.374 32.4492 161.488 32.543C161.603 32.6367 161.66 32.6914 161.66 32.707V32.8008L161.586 32.8711C161.461 32.9466 161.143 32.9844 160.633 32.9844C160.388 32.9844 160.266 32.9245 160.266 32.8047C160.266 32.7917 160.283 32.7331 160.316 32.6289C160.353 32.5247 160.374 32.4414 160.379 32.3789C160.387 32.3138 160.391 31.9818 160.391 31.3828C160.391 30.7839 160.361 30.4089 160.301 30.2578C160.243 30.1042 160.171 29.987 160.082 29.9062C159.996 29.8229 159.865 29.7812 159.688 29.7812C159.51 29.7812 159.361 29.8294 159.238 29.9258C159.116 30.0221 159.03 30.1302 158.98 30.25C158.931 30.3672 158.906 30.724 158.906 31.3203C158.906 31.9167 158.924 32.2617 158.961 32.3555C158.997 32.4466 159.065 32.5365 159.164 32.625C159.266 32.7135 159.316 32.7721 159.316 32.8008C159.316 32.931 159.089 32.9961 158.633 32.9961H158.086C157.812 32.9961 157.676 32.957 157.676 32.8789C157.676 32.7982 157.71 32.7214 157.777 32.6484C157.923 32.4948 158.005 32.3685 158.023 32.2695ZM164.352 31.1914H164.285C163.944 31.1914 163.659 31.2682 163.43 31.4219C163.203 31.5729 163.09 31.7617 163.09 31.9883V32.0664C163.09 32.1992 163.13 32.319 163.211 32.4258C163.294 32.5299 163.401 32.582 163.531 32.582L163.578 32.5898H163.695C163.966 32.5898 164.188 32.4792 164.359 32.2578C164.435 32.1615 164.473 31.9635 164.473 31.6641C164.473 31.6406 164.473 31.6172 164.473 31.5938L164.477 31.5V31.4062C164.477 31.263 164.435 31.1914 164.352 31.1914ZM162.453 29.9297C162.453 29.737 162.605 29.5651 162.91 29.4141C163.217 29.2604 163.535 29.1836 163.863 29.1836C163.874 29.1836 163.884 29.1836 163.895 29.1836C164.207 29.1836 164.457 29.2214 164.645 29.2969C165.025 29.4479 165.242 29.7682 165.297 30.2578C165.302 30.3073 165.305 30.6354 165.305 31.2422C165.305 31.8464 165.32 32.2005 165.352 32.3047C165.385 32.4089 165.474 32.4857 165.617 32.5352C165.763 32.5846 165.836 32.6315 165.836 32.6758C165.836 32.7695 165.789 32.8411 165.695 32.8906C165.508 32.9896 165.323 33.0391 165.141 33.0391C164.961 33.0391 164.827 32.9974 164.738 32.9141C164.579 32.7656 164.495 32.6914 164.484 32.6914C164.474 32.6914 164.327 32.7578 164.043 32.8906C163.759 33.0208 163.51 33.0859 163.297 33.0859C162.977 33.0859 162.725 32.9974 162.543 32.8203C162.361 32.6432 162.27 32.4284 162.27 32.1758V32.0781C162.27 31.8073 162.387 31.569 162.621 31.3633C162.855 31.1576 163.277 30.9974 163.887 30.8828C164.108 30.8411 164.247 30.8021 164.305 30.7656C164.419 30.6927 164.477 30.5443 164.477 30.3203C164.477 30.0964 164.417 29.9245 164.297 29.8047C164.177 29.6849 164.017 29.625 163.816 29.625C163.616 29.625 163.422 29.7422 163.234 29.9766C163.049 30.2083 162.88 30.3242 162.727 30.3242C162.544 30.3242 162.453 30.1927 162.453 29.9297ZM167.898 27.9844C167.898 28.099 167.849 28.2057 167.75 28.3047C167.654 28.401 167.557 28.4492 167.461 28.4492C167.44 28.4544 167.423 28.457 167.41 28.457L167.324 28.4648C167.194 28.4648 167.077 28.4219 166.973 28.3359C166.871 28.25 166.82 28.1393 166.82 28.0039V27.9336C166.82 27.7982 166.874 27.6849 166.98 27.5938C167.09 27.5 167.215 27.4531 167.355 27.4531H167.375L167.508 27.4688C167.589 27.4688 167.672 27.513 167.758 27.6016C167.846 27.6875 167.891 27.7747 167.891 27.8633L167.898 27.8984V27.9844ZM166.656 29.7266C166.521 29.6615 166.453 29.6003 166.453 29.543C166.453 29.4857 166.48 29.4401 166.535 29.4062C166.725 29.2917 167.026 29.2344 167.438 29.2344H167.551C167.691 29.2344 167.771 29.2995 167.789 29.4297C167.799 29.5 167.805 29.974 167.805 30.8516C167.805 31.7266 167.823 32.2292 167.859 32.3594C167.896 32.487 167.983 32.5859 168.121 32.6562C168.259 32.724 168.328 32.793 168.328 32.8633C168.328 32.9622 168.005 33.0117 167.359 33.0117L167.242 33.0156H166.766C166.576 33.0156 166.48 32.9688 166.48 32.875C166.48 32.7969 166.538 32.7214 166.652 32.6484C166.77 32.5755 166.85 32.4948 166.895 32.4062C166.944 32.3099 166.969 32.0846 166.969 31.7305L166.973 31.6055V31.4844L166.977 31.3008V31.1797L166.98 31.0586C166.98 30.4414 166.96 30.082 166.918 29.9805C166.879 29.8763 166.792 29.7917 166.656 29.7266ZM168.949 32.8633C168.949 32.8086 169.008 32.7383 169.125 32.6523C169.245 32.5664 169.326 32.4323 169.367 32.25C169.409 32.0651 169.43 31.3672 169.43 30.1562C169.43 28.9453 169.415 28.2591 169.387 28.0977C169.361 27.9362 169.294 27.8203 169.188 27.75C169.016 27.638 168.93 27.569 168.93 27.543V27.4961C168.93 27.4518 168.967 27.4128 169.043 27.3789C169.277 27.2773 169.59 27.2266 169.98 27.2266H170.059C170.191 27.2266 170.268 27.3164 170.289 27.4961C170.292 27.5195 170.293 27.7161 170.293 28.0859V28.9258L170.289 29.0859V29.332L170.285 29.4922C170.285 29.4922 170.285 29.9049 170.285 30.7305C170.285 31.5013 170.297 31.9792 170.32 32.1641C170.346 32.3464 170.405 32.4792 170.496 32.5625C170.507 32.5703 170.561 32.6042 170.66 32.6641C170.759 32.724 170.809 32.7852 170.809 32.8477C170.809 32.9388 170.647 32.9844 170.324 32.9844L170.164 32.9922H170.004L169.363 33.0039H169.281C169.06 33.0039 168.949 32.957 168.949 32.8633Z" fill="black"/>
<path d="M227 25L217 19.2265V30.7735L227 25ZM207 25V26H218V25V24H207V25Z" fill="black"/>
<rect width="86" height="50" transform="translate(232)" fill="#EDD9C4"/>
<path d="M267.602 22.9961C267.484 22.9961 267.413 23.0404 267.387 23.1289C267.371 23.1836 267.363 23.4297 267.363 23.8672V24.625C267.363 24.7865 267.378 24.8867 267.406 24.9258C267.435 24.9622 267.523 24.9805 267.672 24.9805H267.836L267.871 24.9766L268.105 24.9648C268.129 24.9622 268.151 24.9609 268.172 24.9609C268.422 24.9609 268.632 24.8685 268.801 24.6836C268.97 24.4987 269.055 24.2747 269.055 24.0117V23.9062C269.055 23.638 268.962 23.4206 268.777 23.2539C268.595 23.0846 268.371 23 268.105 23L268.035 22.9922L267.934 22.9883H267.699C267.658 22.9935 267.625 22.9961 267.602 22.9961ZM268.07 25.3828H267.734C267.534 25.3828 267.421 25.4102 267.395 25.4648C267.371 25.5195 267.359 25.6849 267.359 25.9609V27.082C267.359 27.3242 267.388 27.4727 267.445 27.5273C267.505 27.5794 267.669 27.6055 267.938 27.6055H268.168C268.512 27.6055 268.79 27.5156 269.004 27.3359C269.217 27.1536 269.324 26.9141 269.324 26.6172V26.4141C269.324 26.0938 269.207 25.8424 268.973 25.6602C268.738 25.4753 268.438 25.3828 268.07 25.3828ZM267.98 22.5703C268.908 22.5703 269.503 22.8138 269.766 23.3008C269.859 23.4727 269.906 23.6706 269.906 23.8945C269.906 24.1159 269.853 24.3112 269.746 24.4805C269.642 24.6497 269.548 24.7682 269.465 24.8359C269.384 24.901 269.301 24.9596 269.215 25.0117C269.132 25.0612 269.09 25.0938 269.09 25.1094C269.09 25.125 269.194 25.1862 269.402 25.293C269.613 25.3971 269.78 25.5208 269.902 25.6641C270.121 25.9245 270.23 26.1927 270.23 26.4688V26.5703C270.23 27.0286 270.043 27.3932 269.668 27.6641C269.533 27.763 269.342 27.8503 269.098 27.9258C268.855 27.9987 268.566 28.0352 268.23 28.0352H267.816L267.715 28.0312C267.647 28.0286 267.578 28.0273 267.508 28.0273L267.406 28.0234C267.339 28.0208 267.271 28.0195 267.203 28.0195L267.102 28.0156C267.034 28.013 266.966 28.0117 266.898 28.0117H266.598C266.145 28.0117 265.918 27.9688 265.918 27.8828C265.918 27.7943 265.987 27.7122 266.125 27.6367C266.266 27.5586 266.357 27.4271 266.398 27.2422C266.443 27.0547 266.465 26.6198 266.465 25.9375V24.6523L266.457 24.2461C266.454 24.1784 266.453 24.0169 266.453 23.7617C266.453 23.5065 266.428 23.3281 266.379 23.2266C266.332 23.1224 266.237 23.0365 266.094 22.9688C265.951 22.901 265.879 22.8411 265.879 22.7891C265.879 22.7135 265.915 22.6628 265.988 22.6367C266.061 22.6081 266.285 22.5938 266.66 22.5938L267.566 22.5703H267.98ZM271.855 25.9883V26.1328C271.855 26.5755 271.941 26.9427 272.113 27.2344C272.194 27.3724 272.297 27.4818 272.422 27.5625C272.547 27.6432 272.673 27.6836 272.801 27.6836H272.879C273.116 27.6836 273.32 27.569 273.492 27.3398C273.667 27.1081 273.754 26.7799 273.754 26.3555V26.0781C273.754 25.6589 273.667 25.3034 273.492 25.0117C273.32 24.7174 273.102 24.5703 272.836 24.5703H272.715C272.475 24.5703 272.272 24.6992 272.105 24.957C271.939 25.2148 271.855 25.5586 271.855 25.9883ZM274.695 26.0039V26.1992C274.695 26.4049 274.654 26.6302 274.57 26.875C274.396 27.3854 274.048 27.7422 273.527 27.9453C273.301 28.0339 273.082 28.0781 272.871 28.0781H272.742C272.245 28.0781 271.829 27.9115 271.496 27.5781C271.345 27.4271 271.223 27.2279 271.129 26.9805C271.035 26.7331 270.988 26.4701 270.988 26.1914V26.125C270.988 25.8724 271.033 25.6172 271.121 25.3594C271.293 24.8568 271.63 24.5078 272.133 24.3125C272.359 24.224 272.577 24.1797 272.785 24.1797H272.98C273.212 24.1797 273.44 24.2318 273.664 24.3359C274.089 24.5339 274.384 24.849 274.551 25.2812C274.647 25.5365 274.695 25.7773 274.695 26.0039ZM276.238 25.9883V26.1328C276.238 26.5755 276.324 26.9427 276.496 27.2344C276.577 27.3724 276.68 27.4818 276.805 27.5625C276.93 27.6432 277.056 27.6836 277.184 27.6836H277.262C277.499 27.6836 277.703 27.569 277.875 27.3398C278.049 27.1081 278.137 26.7799 278.137 26.3555V26.0781C278.137 25.6589 278.049 25.3034 277.875 25.0117C277.703 24.7174 277.484 24.5703 277.219 24.5703H277.098C276.858 24.5703 276.655 24.6992 276.488 24.957C276.322 25.2148 276.238 25.5586 276.238 25.9883ZM279.078 26.0039V26.1992C279.078 26.4049 279.036 26.6302 278.953 26.875C278.779 27.3854 278.431 27.7422 277.91 27.9453C277.684 28.0339 277.465 28.0781 277.254 28.0781H277.125C276.628 28.0781 276.212 27.9115 275.879 27.5781C275.728 27.4271 275.605 27.2279 275.512 26.9805C275.418 26.7331 275.371 26.4701 275.371 26.1914V26.125C275.371 25.8724 275.415 25.6172 275.504 25.3594C275.676 24.8568 276.013 24.5078 276.516 24.3125C276.742 24.224 276.96 24.1797 277.168 24.1797H277.363C277.595 24.1797 277.823 24.2318 278.047 24.3359C278.471 24.5339 278.767 24.849 278.934 25.2812C279.03 25.5365 279.078 25.7773 279.078 26.0039ZM281.352 26.3438C281.193 26.3438 281.113 26.5729 281.113 27.0312C281.113 27.1927 281.151 27.3503 281.227 27.5039L281.332 27.6836C281.368 27.7487 281.387 27.7956 281.387 27.8242C281.387 27.918 281.125 27.9648 280.602 27.9648C280.078 27.9648 279.816 27.9206 279.816 27.832C279.816 27.8086 279.859 27.7383 279.945 27.6211C280.034 27.5013 280.098 27.362 280.137 27.2031C280.178 27.0417 280.199 26.668 280.199 26.082L280.203 25.9336C280.208 25.8008 280.211 25.7018 280.211 25.6367L280.219 25.3398L280.223 25.0391V24.4336C280.223 23.681 280.208 23.237 280.18 23.1016C280.154 22.9635 280.105 22.8594 280.035 22.7891L279.949 22.7227L279.855 22.6641C279.78 22.6094 279.742 22.5586 279.742 22.5117C279.742 22.4622 279.773 22.4193 279.836 22.3828C280.013 22.2812 280.286 22.2305 280.656 22.2305H280.789C280.938 22.2305 281.03 22.3359 281.066 22.5469C281.079 22.625 281.086 23.2083 281.086 24.2969L281.082 24.7461C281.082 25.1029 281.083 25.293 281.086 25.3164C281.115 25.5638 281.182 25.6875 281.289 25.6875C281.396 25.6875 281.579 25.5469 281.84 25.2656C282.1 24.9818 282.23 24.7799 282.23 24.6602L282.219 24.5195C282.219 24.431 282.253 24.3685 282.32 24.332C282.391 24.2956 282.535 24.2773 282.754 24.2773C283.251 24.2773 283.5 24.3307 283.5 24.4375C283.5 24.4401 283.27 24.6263 282.809 24.9961C282.348 25.3659 282.117 25.6302 282.117 25.7891C282.117 25.9479 282.434 26.3971 283.066 27.1367C283.204 27.2982 283.355 27.4375 283.52 27.5547C283.686 27.6719 283.77 27.75 283.77 27.7891C283.77 27.9167 283.577 27.9805 283.191 27.9805H282.906C282.656 27.9805 282.477 27.9089 282.367 27.7656L282.211 27.3867C282.146 27.2305 282.038 27.0456 281.887 26.832C281.655 26.5065 281.477 26.3438 281.352 26.3438Z" fill="black"/>
</svg>
