<?xml version="1.0" encoding="UTF-8"?>
<svg id="Layer_2" data-name="Layer 2" xmlns="http://www.w3.org/2000/svg" viewBox="0 0 534.1 29.84">
  <g id="Layer_1-2" data-name="Layer 1">
    <g id="top">
      <path d="M516.92,11c-3.86-2.08-8.14-3.4-12.5-3.99-37.08-5.02-74.25,15.33-111.12,19.86-29.55,3.63-60.91,2.97-90.37-.88l.48-1.97c36.7,5.13,75.15,4.44,111.55-2.48,29-7.73,56.52-19.21,87.34-16.41,1.19.11,17.9,2.63,14.62,5.87Z"/>
      <path d="M230.92,25.01c.05,1.51-3.49,1.7-4.61,1.87-52.21,7.69-91.83-.57-141.17-13.6C63.93,7.69,38.23,2.63,17.42,10.99c-1.88-2.57,4.28-3.96,6.48-4.52,35.04-8.98,78.34,13.64,113.67,18.39,30.96,4.16,62.33,3.11,93.35.15Z"/>
      <path d="M301.92,19.01c-1.75,2.82-6.26,2.54-8.99,2l.99,6.99-3.93-7.55c-8.2-8.51-14.37-2.9-21.05,3.56.93-8.51,7.61-13.27,16.05-11.55,6.11,1.24,10.29,7.54,16.93,6.56Z"/>
      <path d="M262.92,25c-7.46-11.21-20.92-12.94-24,2-4.35.99-.38-5.49-.99-6-2.59-.23-6.73,1.13-8-2,6.49,1.27,9.74-4.86,15.18-6.32,9.59-2.58,16.09,3.09,17.81,12.31Z"/>
      <path d="M264.94,14c3.83-3.89,5.82-11.53,11.98-5.49-5.59,1.67-7.83,7.03-11.98,10.49-1.45-4.43-5.17-9.22-10.01-10.01,2.68-5.99,9.61.3,10.01,5.01Z"/>
      <path d="M532.91,0c3.25,7.09-2.37,8.15-6.98,11.5,4.59,1.04,12.66,7.86,5.01,10.5-.21-5.67-5.7-8.25-10.01-10.5,2.12-2.16,5.55-3.22,7.54-5.46,2.21-2.48,1.46-6.13,4.44-6.04Z"/>
      <path d="M12.93,11.99l-4.51,2.01L.94,22c-2.76-6.47,1.86-8.24,6.98-10.49C3.45,8.84-4.23,4.36,2.92,0c-.24,6.66,6.56,7.89,10.01,11.99Z"/>
    </g>
  </g>
</svg>