<?xml version="1.0" encoding="UTF-8"?>
<svg id="Layer_2" data-name="Layer 2" xmlns="http://www.w3.org/2000/svg" viewBox="0 0 533.87 29.27">
  <g id="Layer_1-2" data-name="Layer 1">
    <g id="bottom">
      <path d="M516.87,18.28c2.21,2.14-6.84,4.54-7.74,4.75-37.26,8.4-83.11-16-121.75-19.74-27.03-2.62-57.17-1.71-84.01,1.98l-.48-1.97c37.19-4.74,77.47-4.93,114.19,3.3,16.07,3.6,31.4,10.38,47.61,13.39s37.05,4.81,52.19-1.7Z"/>
      <path d="M231.88,3.29c0,1.75-4.38,1.11-5.54,1.03C188.57,1.85,156.64-.46,118.88,7.77c-30.67,6.68-62.46,22.88-95.04,15.05-2.14-.51-8.38-2.04-6.46-4.54,19.04,7.84,43.3,3.79,62.93-1.08,13.59-3.37,26.63-8.75,40.39-11.61C156.63-1.88,195.61-.94,231.88,3.29Z"/>
      <path d="M238.87,2.27c2.11,10.24,10.94,14.29,19.51,7,.61-.52,4.71-7.1,4.48-3.52-2.56,7.18-7.13,12.33-15.37,11.46-6.9-.73-10.25-8.06-17.61-6.95,1.54-3.06,5.34-2.88,7.99-1.99.66-.65-3.39-6.95,1-6Z"/>
      <path d="M293.89,8.27c2.52-1.1,6.49-.6,7.99,1.99-8.21-.68-12.72,7.78-21.37,6.96-6.17-.58-11.36-5.69-11.61-11.95,6.43,6.07,12.38,12.02,20.54,4.05l4.44-8.04.02,6.99Z"/>
      <path d="M525.89,17.29c3.94,4.21,10.48,4.39,6.98,11.98-2.98.08-2.23-3.56-4.44-6.04s-5.87-3.17-7.54-5.94c4.24-.87,9.67-5.51,10.01-10.01l2.53.97c1.88,5.23-2.96,8.18-7.53,9.04Z"/>
      <path d="M276.88,20.29c-4.95,6.69-8.5-1.5-11.99-5.01-.11,4.28-7.37,11.22-10.01,5.49,4.65-1.83,8.55-5.61,10.01-10.49,4.17,3.1,6.13,9.3,11.98,10.01Z"/>
      <path d="M2.87,7.27c.53,5.17,5.82,8.44,10.01,10.5-4.36,3.27-9.6,5.4-10.49,11.5-6.19-5.08,1.09-8.71,5.49-11.5.2-.41-6.44-2.56-7.35-4.76S-.09,6.52,2.87,7.27Z"/>
    </g>
  </g>
</svg>