<?xml version="1.0" encoding="UTF-8"?>
<svg id="Lag_2" data-name="Lag 2" xmlns="http://www.w3.org/2000/svg" viewBox="0 0 1090 1025">
  <defs>
    <style>
      .cls-1 {
        stroke-width: 0px;
      }
    </style>
  </defs>
  <g id="Logo_sort" data-name="Logo sort">
    <path class="cls-1" d="M46,0h280.5l1.5,1.5-1,5.5-30.5,1-16,3c-13.13,3.53-23.3,10.03-30.5,19.5l-8,17-2,10v18l-1,1v484l1,1v34.5h-105.5l-.5-.5V67.5l-1-1v-12l-4-15c-3.6-7.4-8.43-13.57-14.5-18.5-6.73-5.27-15.07-8.93-25-11l-13-1-1-1h-25l-3.5-1-1-7Z"/>
    <path class="cls-1" d="M853.5,351l65,1,1,1h9l1,1h10l8,2h7l38,8c18.6,5.4,35.6,12.4,51,21,10.47,5.87,19.63,13.03,27.5,21.5,6.27,6.4,11.27,14.07,15,23l4,15v18c-3.33,18-11.17,31.5-23.5,40.5l-15,9-15,5-22,4h-7l-1,1h-11l.5-1.5-1-3v-23l-1-1-2-28-7-31-11-28c-5.13-8.2-11.3-15.37-18.5-21.5l-19-12-22-8-21-4h-10l-1-1h-27l-1,1h-13l-1,1-14,1-32,8-30,14-23.5,17c.73,1.8.23,2.47-1.5,2-10.27,10.4-19.1,22.23-26.5,35.5l-12,24-10,27-12,51-7,54.5h-111.5l-.5-1.5,7-26,13-39,19-40c15.13-25.87,33.63-48.37,55.5-67.5,24.67-22,54.33-39,89-51l26-8,23-5h5l13-3h7l1-1,18-1,1-1h15l1-1Z"/>
    <path class="cls-1" d="M16.5,645l2,1h22.5l1,3.5-1.5,1.5h-9.5v33h43v-32.5l-.5-.5h-8l-.5-1.5-1-3.5h35.5l.5,2.5-2.5,2.5h-8.5v74.5l.5.5h9l2.5,3.5c-1.13-1.07-2.3-.57-3.5,1.5h-32l-2.5-2.5c-.47-1.47.03-1.97,1.5-1.5l1-1h8.5v-37h-41.5l-1.5,1.5v35.5c5.07-.73,8.73-.4,11,1l-2.5,4H7.5l-2.5-1c-1-2.47-.5-3.47,1.5-3l1-1h8.5l1-3.5v-2l-1-3,1-1v-28l-1-3,1-2-1-1-.5-32.5-4,1-5.5-1v-4h9.5l1-1Z"/>
    <path class="cls-1" d="M145.5,645l5.5,2.5,21,50,7,20,4.5,7.5,2,1h15l4.5-1v-69.5l-1-4.5h-10v-5h34.5l.5,4c-2.07,1.33-5.4,1.67-10,1v8.5l-1,1v64l1.5,1.5h10l1.5,1.5-1,2.5-3.5,1h-30l-3.5-2.5-1.5,2.5h-32l-1.5-1.5,1.5-3.5,4-1h2c1.53.53,2.03.03,1.5-1.5l-3-5-7-20.5h-26.5l-2.5,1-8,25,9,2,1,4-2.5,1h-25.5c-.67-2.53-.17-4.2,1.5-5l7.5-2,29-70.5,1-5,2.5-2.5,2-1ZM143,664l-3,4-8,23c-1.33.67-1,1.33,1,2l4-1,3,1h14l-7-20-4-9Z"/>
    <path class="cls-1" d="M239,645h43.5l11,2,8.5,6.5,4,8v12l-8.5,11.5c-2.4,2.93-6.23,4.43-11.5,4.5l12,5.5,5,9.5,1,16,2,6,2.5,2.5h5l.5-2h1.5l2.5-1c.87,3.07.37,5.07-1.5,6-3.33,2-8,2.67-14,2-4.93-.73-8.43-2.9-10.5-6.5l-3-7-1-19-4.5-7.5-14-4h-5.5v35.5l.5.5h7l2.5,1-1.5,3-3,1h-25l-4.5-1,1.5-4h7l.5-.5v-74l-1.5-1.5h-8.5v-5ZM264,650v36l15-1,7-4c2.67-2,4.33-5,5-9,1.33-8.67,0-14.33-4-17l-5-4h-8l-1-1c-3.33-.67-5.33-.33-6,1l-3-1Z"/>
    <path class="cls-1" d="M487.5,645l25,1,1.5,1.5-1.5,2.5c-5,.33-8.5,2.17-10.5,5.5l-24,38v31l1.5,1.5h8l1.5,1.5c.73,2.2.23,3.03-1.5,2.5l-1,1h-31l-3.5-1c-1.13-2.73-.3-3.73,2.5-3l1-1h7.5l1-3.5v-2l-1-5,1-3-1-5,1-1v-9l-5-11-25.5-36.5-5,1c-2.13-.8-2.97-2.47-2.5-5h34.5l.5,1.5c-.93,1.87-2.93,2.37-6,1.5.73,2.2-.27,2.87-3,2v2.5l22.5,32.5,20.5-32.5c-1.8-2.13-4.47-2.97-8-2.5l-1-4.5,1.5-1.5Z"/>
    <path class="cls-1" d="M555.5,645l3,1h24.5l-1.5,4-9.5,1v82.5l-3,12-7.5,10.5-12,6h-14l-8-3-3.5-3.5-1-6,3.5-4.5c2.2-2,5.37-2.67,9.5-2l1,10.5,2.5,2.5c7.53,1.53,12.03.03,13.5-4.5l2-3,2-9v-88.5l-10-1-1-4h8.5l1-1Z"/>
    <path class="cls-1" d="M652.5,645c12.53-1.2,21.03,1.63,25.5,8.5,2.4,3.6,3.07,8.93,2,16-1.4,5.27-4.23,9.1-8.5,11.5l-9.5,5,1.5,3,17.5,16.5c-.47,1.73.2,2.23,2,1.5l2-8.5v-12l-1-4.5,7,1c1.4,2.2,1.73,6.03,1,11.5l-4,19.5,11.5,8,16.5,3v2.5l-4.5,4.5-11,1-8-2-13-8-10,7-8,1-4,2h-7l-11-3-11.5-8.5c-3-3.67-4-9.33-3-17,1.93-5.4,5.1-9.57,9.5-12.5l7-4h3.5l-8-12.5c-2-3.33-2.67-8-2-14,1.47-5.53,4.3-9.7,8.5-12.5l9-4ZM655,650l-3,2-5,8,1,10,5,8c.67,2,3,2.67,7,2,4-2,6.33-5.67,7-11,1.33-7.33.67-12.33-2-15-1.33-3.33-4.67-4.67-10-4ZM649,692c-4.67,2.67-7.67,7.33-9,14-.67,6,.33,10.67,3,14l11,6,12-1,9-5v-2l-20-21-6-5Z"/>
    <path class="cls-1" d="M799.5,645h24l5,1h2l2.5,1.5v18l1,3c-.47,1.53-1.97,2.03-4.5,1.5l-2.5-2.5c-.27-6.07-1.77-10.9-4.5-14.5l-17-2-12,3-12.5,9.5-6,11-2,17,3,15,8.5,11.5c6.33,5.67,15.67,8.33,28,8,.87-1.47,2.87-1.8,6-1l1.5-1.5,1-2v-19l-1-4.5h-8.5l-1.5-1.5v-2.5h6.5l1-1h15l1,1h9.5l-1.5,3-6.5,2v10.5l-1,1v17l-1.5,1.5-10,2h-9l-1,1h-13l-21-5c-6-2.67-10.83-6.5-14.5-11.5l-7-15-1-13,1-1v-8l3-9,10.5-13.5,15-8,14-3Z"/>
    <path class="cls-1" d="M353,646h45.5l12,4,4.5,4.5c2.93,3.4,3.93,8.73,3,16-1.4,5.53-4.23,9.7-8.5,12.5l-8.5,4.5,10.5,1.5,8.5,7.5c2.2,3.87,2.87,9.2,2,16-1,4.67-3.17,8.17-6.5,10.5l-15,7h-10l-1,1h-31l-5.5-2.5c-.53-1.73.3-2.23,2.5-1.5.87-1.47,2.87-1.8,6-1l1.5-1.5v-73l-1.5-1.5-7,1c-1.67-.8-2.17-2.47-1.5-5ZM378,650v35l15-2,5-3,5-9-1-13-8-7c-6.67.67-12,.33-16-1ZM378,690v36l2,1h9l12-4,4-4,3-9v-6l-2-6c-2.67-4-6.33-6.67-11-8h-17Z"/>
    <path class="cls-1" d="M216.5,778l-1.5,2.5-5,12-19.5,24.5-2.5,1.5-1.5,2.5c-9.27,9.07-19.6,17.07-31,24-14.8,8.2-31.13,14.87-49,20l-47,9-28,1-1,1H1l-1-4.5,1-4.5,27.5-1,23-4,8-3c17.47-6.87,31.63-17.03,42.5-30.5v-2l11-16,7-16,4-15.5h91.5l1-1Z"/>
    <path class="cls-1" d="M560,779h112.5l.5.5v9l1,1,2,21,7,37,8,30,10,27c11.4,27.27,27.23,50.1,47.5,68.5,18.13,15.87,40.47,27.53,67,35h4l13,4h6l15,3h9l1,1h47l1-1h9l1-1h9l7-2h6l33.5-7c1.2-2.53,1.53-6.37,1-11.5v-2l-1-4v-208.5h106.5l.5,3.5-1,1v195l1,2-23.5,10.5-28,10-30,9h-4l-4,2-24,5h-5l-13,3h-7l-1,1h-7l-1,1-22,1-1,1-58,1-1-1-32-1-1-1-27-3-27-6-36-12c-38.07-15.27-69.9-36.77-95.5-64.5-19.47-19.87-35.47-43.2-48-70-7-15-13-31-18-48l-10-39.5Z"/>
  </g>
</svg>